<?xml version="1.0" standalone="no"?>
<!DOCTYPE svg PUBLIC "-//W3C//DTD SVG 20010904//EN"
 "http://www.w3.org/TR/2001/REC-SVG-20010904/DTD/svg10.dtd">
<svg version="1.0" xmlns="http://www.w3.org/2000/svg"
 width="180.000000pt" height="180.000000pt" viewBox="0 0 180.000000 180.000000"
 preserveAspectRatio="xMidYMid meet">
<metadata>
Created by potrace 1.14, written by Peter Selinger 2001-2017
</metadata>
<g transform="translate(0.000000,180.000000) scale(0.100000,-0.100000)"
fill="#000000" stroke="none">
<path d="M255 1784 c-99 -35 -202 -146 -235 -253 -19 -60 -20 -93 -20 -612 0
-368 4 -565 11 -601 26 -122 110 -226 227 -281 l67 -32 555 -3 c593 -3 633 -1
723 45 60 30 138 106 166 161 49 97 51 120 51 697 0 573 -2 601 -49 693 -35
68 -98 129 -173 167 l-71 35 -606 -1 c-498 0 -613 -3 -646 -15z m1097 -262
c77 -38 130 -92 167 -171 l26 -56 0 -390 0 -390 -27 -57 c-34 -73 -103 -142
-176 -176 l-57 -27 -385 0 -385 0 -55 26 c-82 39 -135 90 -172 167 l-33 67 0
390 0 390 26 55 c33 70 79 123 137 157 85 50 109 52 502 50 l365 -2 67 -33z"/>
<path d="M517 1446 c-55 -20 -103 -61 -134 -114 l-28 -47 0 -380 0 -380 28
-47 c31 -53 79 -94 134 -114 55 -19 711 -19 766 0 55 20 103 61 134 114 l28
47 0 380 0 380 -28 47 c-31 53 -79 94 -134 114 -55 19 -711 19 -766 0z m512
-213 l41 -18 -44 -125 c-24 -69 -57 -159 -74 -200 -16 -42 -36 -96 -43 -120
-9 -32 -14 -39 -17 -25 -2 11 -33 108 -68 215 -36 107 -67 211 -70 231 -7 39
-4 41 81 63 38 10 154 -3 194 -21z m-339 -100 c0 -7 34 -108 75 -224 41 -116
78 -228 81 -250 6 -36 9 -39 38 -39 30 0 33 3 45 51 7 28 29 90 49 137 19 48
56 148 83 222 26 74 49 128 52 120 7 -21 27 -349 27 -436 0 -71 0 -71 -37 -97
-70 -48 -112 -61 -203 -61 -95 0 -150 18 -221 75 -30 24 -39 38 -39 62 -1 81
35 475 42 464 4 -7 8 -18 8 -24z m-95 -217 c-9 -77 -18 -142 -20 -144 -2 -2
-9 23 -15 54 -16 74 -7 159 22 227 31 72 34 42 13 -137z m651 28 c8 -72 -14
-197 -26 -153 -4 15 -11 78 -14 140 -4 63 -9 128 -11 144 -4 24 0 20 20 -21
14 -28 28 -78 31 -110z"/>
</g>
</svg>
