<?xml version="1.0" standalone="no"?>
<!DOCTYPE svg PUBLIC "-//W3C//DTD SVG 20010904//EN"
 "http://www.w3.org/TR/2001/REC-SVG-20010904/DTD/svg10.dtd">
<svg version="1.0" xmlns="http://www.w3.org/2000/svg"
 width="180.000000pt" height="180.000000pt" viewBox="0 0 180.000000 180.000000"
 preserveAspectRatio="xMidYMid meet">
<metadata>
Created by potrace 1.14, written by Peter Selinger 2001-2017
</metadata>
<g transform="translate(0.000000,180.000000) scale(0.100000,-0.100000)"
fill="#000000" stroke="none">
<path d="M255 1784 c-99 -35 -202 -146 -235 -253 -19 -60 -20 -93 -20 -612 0
-368 4 -565 11 -601 26 -122 110 -226 227 -281 l67 -32 555 -3 c593 -3 633 -1
723 45 60 30 138 106 166 161 49 97 51 120 51 697 0 573 -2 601 -49 693 -35
68 -98 129 -173 167 l-71 35 -606 -1 c-498 0 -613 -3 -646 -15z m1097 -262
c77 -38 130 -92 167 -171 l26 -56 0 -390 0 -390 -27 -57 c-34 -73 -103 -142
-176 -176 l-57 -27 -385 0 -385 0 -55 26 c-82 39 -135 90 -172 167 l-33 67 0
390 0 390 26 55 c33 70 79 123 137 157 85 50 109 52 502 50 l365 -2 67 -33z"/>
<path d="M517 1446 c-55 -20 -103 -61 -134 -114 l-28 -47 0 -380 0 -380 28
-47 c27 -46 77 -93 107 -100 8 -2 18 -7 22 -13 5 -6 145 -10 385 -10 l378 0
47 28 c53 31 94 79 114 134 19 55 19 721 0 776 -20 55 -61 103 -114 134 l-47
28 -360 2 c-280 2 -368 -1 -398 -11z m463 -199 c14 -2 40 -11 57 -18 l33 -14
-34 -95 c-19 -52 -48 -133 -66 -180 -18 -47 -41 -114 -53 -149 l-20 -63 -32
108 c-18 60 -49 155 -69 211 -41 117 -54 182 -37 184 20 3 26 4 39 13 7 4 19
5 27 2 8 -3 17 -1 21 5 5 9 62 7 134 -4z m-270 -182 c17 -55 35 -109 40 -120
13 -30 58 -160 84 -245 21 -69 25 -75 52 -78 28 -2 30 0 53 75 14 43 31 90 39
106 12 25 122 333 122 343 0 2 4 4 8 4 8 0 32 -335 32 -448 0 -55 -3 -65 -20
-69 -11 -3 -20 -9 -20 -13 0 -12 -77 -50 -118 -57 -82 -15 -199 -4 -214 20 -4
7 -8 9 -8 4 0 -11 -60 22 -60 33 0 6 -6 10 -13 10 -8 0 -22 9 -32 20 -18 20
-18 28 0 270 10 137 20 249 21 247 1 -1 17 -47 34 -102z m-115 -143 c-15 -125
-20 -151 -28 -131 -6 13 -11 65 -11 114 0 74 4 99 24 143 14 30 26 48 28 42 3
-7 -4 -82 -13 -168z m651 25 c8 -67 -15 -200 -26 -156 -4 14 -10 76 -14 139
-4 63 -9 129 -11 145 -4 24 0 20 20 -20 13 -28 27 -76 31 -108z"/>
</g>
</svg>
